<svg
      width="114"
      height="33"
      viewBox="0 0 114 33"
      fill="none"
      xmlns="http://www.w3.org/2000/svg"
    >
      <path
        d="M24.3673 4.35705L26.8297 5.68394C31.2158 8.04739 33.0537 13.3815 31.0545 17.9451C29.5299 21.425 26.0907 23.6731 22.2915 23.6731L14.4877 23.6731C10.6885 23.6731 7.24925 21.425 5.72471 17.9451C3.72542 13.3815 5.56334 8.04739 9.94942 5.68394L12.4119 4.35705C16.1434 2.34632 20.6358 2.34631 24.3673 4.35705Z"
        fill="#7E6FC8"
        stroke="black"
        strokeWidth="2"
      />
      <path
        d="M32.139 17.7863C32.139 17.7863 26.674 30.3099 18.1938 30.2107C9.71364 30.1116 4.54297 17.4636 4.54297 17.4636C4.54297 17.4636 17.1628 22.0456 18.2867 22.2672C19.4106 22.4889 32.139 17.7863 32.139 17.7863Z"
        fill="black"
      />
      <path
        d="M44.26 27.24C42.08 27.24 40.32 26.81 38.98 25.95C38.34 25.57 38.02 25.03 38.02 24.33C38.02 23.93 38.13 23.61 38.35 23.37C38.57 23.11 38.84 22.98 39.16 22.98C39.5 22.98 39.97 23.14 40.57 23.46C41.21 23.76 41.79 23.99 42.31 24.15C42.85 24.31 43.53 24.39 44.35 24.39C45.19 24.39 45.84 24.25 46.3 23.97C46.78 23.69 47.02 23.3 47.02 22.8C47.02 22.46 46.92 22.19 46.72 21.99C46.54 21.79 46.2 21.61 45.7 21.45C45.22 21.27 44.48 21.07 43.48 20.85C41.7 20.49 40.42 19.98 39.64 19.32C38.88 18.66 38.5 17.75 38.5 16.59C38.5 15.71 38.76 14.92 39.28 14.22C39.8 13.5 40.51 12.95 41.41 12.57C42.33 12.17 43.37 11.97 44.53 11.97C45.37 11.97 46.18 12.08 46.96 12.3C47.74 12.5 48.44 12.8 49.06 13.2C49.7 13.6 50.02 14.13 50.02 14.79C50.02 15.19 49.91 15.53 49.69 15.81C49.47 16.07 49.2 16.2 48.88 16.2C48.66 16.2 48.44 16.16 48.22 16.08C48.02 15.98 47.76 15.84 47.44 15.66C46.86 15.36 46.36 15.14 45.94 15C45.52 14.84 45 14.76 44.38 14.76C43.64 14.76 43.05 14.91 42.61 15.21C42.19 15.51 41.98 15.92 41.98 16.44C41.98 16.94 42.2 17.32 42.64 17.58C43.08 17.84 43.93 18.1 45.19 18.36C46.53 18.64 47.58 18.96 48.34 19.32C49.1 19.68 49.64 20.13 49.96 20.67C50.3 21.21 50.47 21.9 50.47 22.74C50.47 24.1 49.9 25.19 48.76 26.01C47.64 26.83 46.14 27.24 44.26 27.24ZM62.0905 11.97C65.5305 11.97 67.2505 13.98 67.2505 18V25.38C67.2505 25.94 67.0805 26.38 66.7405 26.7C66.4205 27.02 65.9705 27.18 65.3905 27.18C64.8105 27.18 64.3505 27.02 64.0105 26.7C63.6705 26.38 63.5005 25.94 63.5005 25.38V18C63.5005 16.94 63.2805 16.17 62.8405 15.69C62.4205 15.19 61.7505 14.94 60.8305 14.94C59.7505 14.94 58.8805 15.28 58.2205 15.96C57.5805 16.64 57.2605 17.55 57.2605 18.69V25.38C57.2605 25.94 57.0905 26.38 56.7505 26.7C56.4105 27.02 55.9505 27.18 55.3705 27.18C54.7905 27.18 54.3305 27.02 53.9905 26.7C53.6705 26.38 53.5105 25.94 53.5105 25.38V7.44C53.5105 6.92 53.6805 6.5 54.0205 6.18C54.3805 5.86 54.8405 5.7 55.4005 5.7C55.9605 5.7 56.4105 5.85 56.7505 6.15C57.0905 6.45 57.2605 6.86 57.2605 7.38V14.37C57.7605 13.59 58.4205 13 59.2405 12.6C60.0805 12.18 61.0305 11.97 62.0905 11.97ZM77.4194 11.97C79.4594 11.97 80.9694 12.48 81.9494 13.5C82.9494 14.5 83.4494 16.03 83.4494 18.09V25.41C83.4494 25.95 83.2894 26.38 82.9694 26.7C82.6494 27 82.2094 27.15 81.6494 27.15C81.1294 27.15 80.6994 26.99 80.3594 26.67C80.0394 26.35 79.8794 25.93 79.8794 25.41V24.75C79.5394 25.53 78.9994 26.14 78.2594 26.58C77.5394 27.02 76.6994 27.24 75.7394 27.24C74.7594 27.24 73.8694 27.04 73.0694 26.64C72.2694 26.24 71.6394 25.69 71.1794 24.99C70.7194 24.29 70.4894 23.51 70.4894 22.65C70.4894 21.57 70.7594 20.72 71.2994 20.1C71.8594 19.48 72.7594 19.03 73.9994 18.75C75.2394 18.47 76.9494 18.33 79.1294 18.33H79.8794V17.64C79.8794 16.66 79.6694 15.95 79.2494 15.51C78.8294 15.05 78.1494 14.82 77.2094 14.82C76.6294 14.82 76.0394 14.91 75.4394 15.09C74.8394 15.25 74.1294 15.49 73.3094 15.81C72.7894 16.07 72.4094 16.2 72.1694 16.2C71.8094 16.2 71.5094 16.07 71.2694 15.81C71.0494 15.55 70.9394 15.21 70.9394 14.79C70.9394 14.45 71.0194 14.16 71.1794 13.92C71.3594 13.66 71.6494 13.42 72.0494 13.2C72.7494 12.82 73.5794 12.52 74.5394 12.3C75.5194 12.08 76.4794 11.97 77.4194 11.97ZM76.4894 24.54C77.4894 24.54 78.2994 24.21 78.9194 23.55C79.5594 22.87 79.8794 22 79.8794 20.94V20.31H79.3394C77.9994 20.31 76.9594 20.37 76.2194 20.49C75.4794 20.61 74.9494 20.82 74.6294 21.12C74.3094 21.42 74.1494 21.83 74.1494 22.35C74.1494 22.99 74.3694 23.52 74.8094 23.94C75.2694 24.34 75.8294 24.54 76.4894 24.54ZM95.6905 11.97C96.9505 11.97 98.0705 12.29 99.0505 12.93C100.051 13.57 100.821 14.48 101.361 15.66C101.921 16.82 102.201 18.16 102.201 19.68C102.201 21.2 101.921 22.53 101.361 23.67C100.821 24.81 100.061 25.69 99.0805 26.31C98.1005 26.93 96.9705 27.24 95.6905 27.24C94.6505 27.24 93.7205 27.02 92.9005 26.58C92.0805 26.14 91.4505 25.53 91.0105 24.75V30.87C91.0105 31.39 90.8405 31.8 90.5005 32.1C90.1605 32.4 89.7105 32.55 89.1505 32.55C88.5905 32.55 88.1305 32.39 87.7705 32.07C87.4305 31.75 87.2605 31.33 87.2605 30.81V13.8C87.2605 13.26 87.4205 12.83 87.7405 12.51C88.0805 12.19 88.5305 12.03 89.0905 12.03C89.6505 12.03 90.1005 12.19 90.4405 12.51C90.7805 12.83 90.9505 13.26 90.9505 13.8V14.55C91.3905 13.73 92.0205 13.1 92.8405 12.66C93.6805 12.2 94.6305 11.97 95.6905 11.97ZM94.7005 24.33C95.8805 24.33 96.8005 23.93 97.4605 23.13C98.1205 22.31 98.4505 21.16 98.4505 19.68C98.4505 18.16 98.1205 16.98 97.4605 16.14C96.8005 15.3 95.8805 14.88 94.7005 14.88C93.5005 14.88 92.5705 15.29 91.9105 16.11C91.2705 16.93 90.9505 18.1 90.9505 19.62C90.9505 21.12 91.2705 22.28 91.9105 23.1C92.5705 23.92 93.5005 24.33 94.7005 24.33ZM107.138 27.18C106.598 27.18 106.148 27.03 105.788 26.73C105.448 26.41 105.278 25.96 105.278 25.38V13.8C105.278 13.22 105.448 12.78 105.788 12.48C106.148 12.18 106.598 12.03 107.138 12.03C107.678 12.03 108.128 12.18 108.488 12.48C108.848 12.78 109.028 13.22 109.028 13.8V25.38C109.028 25.96 108.848 26.41 108.488 26.73C108.128 27.03 107.678 27.18 107.138 27.18ZM107.138 9.36C106.458 9.36 105.918 9.18 105.518 8.82C105.118 8.44 104.918 7.95 104.918 7.35C104.918 6.75 105.118 6.27 105.518 5.91C105.918 5.55 106.458 5.37 107.138 5.37C107.798 5.37 108.328 5.55 108.728 5.91C109.148 6.27 109.358 6.75 109.358 7.35C109.358 7.95 109.158 8.44 108.758 8.82C108.358 9.18 107.818 9.36 107.138 9.36Z"
        fill="black"
      />
    </svg>