<svg width="318" height="263" viewBox="0 0 318 263" fill="none" xmlns="http://www.w3.org/2000/svg">
<path d="M105.058 29.5654C138.819 11.7693 179.184 11.7693 212.944 29.5654L235.813 41.6204C276.926 63.2924 294.14 113.17 275.144 155.586C260.948 187.285 229.456 207.688 194.723 207.688L123.279 207.688C88.5465 207.688 57.0541 187.285 42.8582 155.586C23.8626 113.17 41.0759 63.2924 82.1891 41.6204L105.058 29.5654Z" fill="#7E6FC8" stroke="black" stroke-width="2"/>
<path d="M277.894 153.785C277.894 153.785 230.642 262.066 157.321 261.208C83.9996 260.351 39.293 150.994 39.293 150.994C39.293 150.994 148.406 190.611 158.124 192.527C167.842 194.444 277.894 153.785 277.894 153.785Z" fill="black"/>
</svg>
